#!OML:ASF X:\für Bonn\!DataBase\2005_08_10_Bjorn_Final\c3d\bjorn.ASF
:FULLY-SPECIFIED
:DEGREES
107
root -1.49919 18.3734 15.8231 -549.87 16.7116 -536.441
lowerback -6.07495 1.36648 4.60159
upperback 10.5184 2.21567 -1.17771
thorax 15.3196 1.99358 -3.37901
lowerneck -5.74816 0.48245 7.57075
upperneck 17.6072 0.933683 -2.69226
head 6.33085 1.02662 -2.01868
rclavicle 1.68967e-015 -1.35174e-014
rhumerus 37.2957 20.8683 -82.8847
rradius 82.1026
rwrist 23.8831
rhand -47.3608 32.9234
rfingers 7.12502
rthumb -20.0541 3.93834
lclavicle 1.68967e-015 -1.35174e-014
lhumerus 25.668 -32.0473 83.4146
lradius 72.7613
lwrist 32.6577
lhand -25.4294 -0.835842
lfingers 7.12502
lthumb 1.09685 29.1411
rfemur 364.221 -9.95814 -343.59
rtibia 35.4659
rfoot -26.7944 9.95562
rtoes -15.0332
lfemur -9.50765 -4.28787 -6.54468
ltibia 39.9093
lfoot -15.314 -3.90498
ltoes -16.7649
108
root -1.47345 18.3705 15.8118 -549.883 16.5632 -536.429
lowerback -6.41991 1.31355 4.65611
upperback 10.2995 2.08045 -1.24558
thorax 15.2661 1.91577 -3.51305
lowerneck -5.59846 0.446016 7.63181
upperneck 17.9578 0.928949 -2.64656
head 6.41602 1.05762 -2.01488
rclavicle 3.45885e-014 -1.74931e-014
rhumerus 38.0224 20.5856 -82.7208
rradius 82.0487
rwrist 23.9085
rhand -47.5865 33.3991
rfingers 7.12502
rthumb -20.271 4.43689
lclavicle 3.45885e-014 -1.74931e-014
lhumerus 26.3962 -31.4991 83.5881
lradius 73.3511
lwrist 32.8416
lhand -25.3079 -1.5767
lfingers 7.12502
lthumb 1.21416 28.3996
rfemur 364.333 -10.0417 -343.53
rtibia 35.4497
rfoot -26.8909 9.90911
rtoes -15.153
lfemur -9.48402 -4.10948 -6.42799
ltibia 39.8891
lfoot -15.2567 -4.16546
ltoes -16.9059
109
root -1.44833 18.3673 15.8006 -549.898 16.4475 -536.452
lowerback -6.74378 1.26887 4.67518
upperback 10.0745 1.96562 -1.32778
thorax 15.1924 1.84445 -3.64039
lowerneck -5.40552 0.417076 7.70663
upperneck 18.2734 0.936132 -2.59542
head 6.48349 1.09583 -2.01058
rclavicle -2.65378e-014 1.51076e-014
rhumerus 38.6807 20.3219 -82.5846
rradius 81.9884
rwrist 24.0892
rhand -47.9018 33.7101
rfingers 7.12502
rthumb -20.5741 4.78034
lclavicle -2.65378e-014 1.51076e-014
lhumerus 27.0531 -30.9457 83.7786
lradius 73.9544
lwrist 32.9867
lhand -25.1953 -2.23061
lfingers 7.12502
lthumb 1.32296 27.745
rfemur 364.424 -10.0983 -343.505
rtibia 35.4348
rfoot -26.9493 9.89758
rtoes -15.0962
lfemur -9.45785 -3.90338 -6.34477
ltibia 39.8697
lfoot -15.2324 -4.4066
ltoes -17.0162
110
root -1.42319 18.3652 15.7894 -549.905 16.3537 -536.451
lowerback -7.03826 1.22263 4.72385
upperback 9.85092 1.84827 -1.40918
thorax 15.1026 1.77574 -3.78485
lowerneck -5.21636 0.41447 7.78238
upperneck 18.5974 0.982046 -2.54762
head 6.55662 1.15361 -2.00464
rclavicle -3.45885e-014 3.97569e-015
rhumerus 39.2877 20.0782 -82.5064
rradius 81.8545
rwrist 24.5125
rhand -48.3349 34.1122
rfingers 7.12502
rthumb -20.9902 5.22805
lclavicle -3.45885e-014 3.97569e-015
lhumerus 27.6607 -30.3887 84.0032
lradius 74.5194
lwrist 33.0845
lhand -25.1357 -2.70966
lfingers 7.12502
lthumb 1.38049 27.2656
rfemur 364.513 -10.1136 -343.435
rtibia 35.427
rfoot -27.0231 9.85439
rtoes -15.113
lfemur -9.42723 -3.70855 -6.23892
ltibia 39.8418
lfoot -15.2085 -4.62925
ltoes -17.2517
111
root -1.39832 18.3617 15.7779 -549.931 16.2965 -536.467
lowerback -7.3089 1.19417 4.77617
upperback 9.6543 1.76564 -1.51273
thorax 15.0357 1.72928 -3.94908
lowerneck -5.07406 0.420936 7.90296
upperneck 18.9097 1.03309 -2.52769
head 6.63513 1.21323 -2.01467
rclavicle 6.27166e-014 -3.02153e-014
rhumerus 39.8845 19.8019 -82.4454
rradius 81.7048
rwrist 25.0016
rhand -48.883 34.5816
rfingers 7.12502
rthumb -21.5167 5.75673
lclavicle 6.27166e-014 -3.02153e-014
lhumerus 28.2651 -29.8909 84.2131
lradius 75.0572
lwrist 33.1101
lhand -25.154 -2.87917
lfingers 7.12502
lthumb 1.36287 27.0962
rfemur 364.614 -10.1177 -343.394
rtibia 35.4211
rfoot -27.0915 9.83584
rtoes -15.1559
lfemur -9.36021 -3.50156 -6.14615
ltibia 39.8134
lfoot -15.1864 -4.83584
ltoes -17.3669
112
root -1.37329 18.3586 15.7667 -549.961 16.2522 -536.495
lowerback -7.57147 1.16386 4.80637
upperback 9.47148 1.68718 -1.6141
thorax 14.9793 1.68395 -4.09754
lowerneck -4.90954 0.439338 8.01578
upperneck 19.1799 1.10178 -2.50979
head 6.69742 1.27922 -2.02271
rclavicle -7.95139e-015 -3.18055e-015
rhumerus 40.501 19.5863 -82.378
rradius 81.4951
rwrist 25.3944
rhand -49.4526 35.3914
rfingers 7.12502
rthumb -22.0636 6.63009
lclavicle -7.95139e-015 -3.18055e-015
lhumerus 28.8503 -29.4243 84.3949
lradius 75.5812
lwrist 33.1276
lhand -25.3247 -2.80967
lfingers 7.12502
lthumb 1.19801 27.1667
rfemur 364.711 -10.1256 -343.364
rtibia 35.4208
rfoot -27.1664 9.82685
rtoes -15.2439
lfemur -9.28606 -3.32383 -6.06844
ltibia 39.7777
lfoot -15.1561 -5.02617
ltoes -17.5556
113
root -1.34879 18.3549 15.7553 -550.007 16.2214 -536.562
lowerback -7.80231 1.13852 4.79286
upperback 9.2842 1.62501 -1.71611
thorax 14.8967 1.64115 -4.2192
lowerneck -4.75877 0.4519 8.08174
upperneck 19.4854 1.16449 -2.45404
head 6.77299 1.3446 -2.01102
rclavicle -2.67365e-014 4.53229e-014
rhumerus 41.0538 19.4185 -82.2889
rradius 81.2858
rwrist 25.6258
rhand -50.0425 36.3649
rfingers 7.12502
rthumb -22.6299 7.67153
lclavicle -2.67365e-014 4.53229e-014
lhumerus 29.3606 -28.9759 84.6535
lradius 76.0434
lwrist 33.0803
lhand -25.4624 -2.82699
lfingers 7.12502
lthumb 1.06496 27.1501
rfemur 364.81 -10.0848 -343.365
rtibia 35.4258
rfoot -27.2485 9.78893
rtoes -15.3364
lfemur -9.19912 -3.10045 -6.03313
ltibia 39.7431
lfoot -15.1466 -5.18841
ltoes -18.0424
